<svg width="51" height="14" viewBox="0 0 51 14" fill="none" xmlns="http://www.w3.org/2000/svg">
<path d="M0.028 11L3.542 0.794H6.146L9.66 11H7.742L6.972 8.76H2.716L1.96 11H0.028ZM3.164 7.332H6.538L5.53 4.462L4.886 2.488H4.816L4.158 4.462L3.164 7.332ZM10.6314 13.338L10.6454 3.552H12.3254L12.3814 4.924H12.4934C12.6707 4.476 12.9694 4.112 13.3894 3.832C13.8187 3.552 14.3367 3.412 14.9434 3.412C15.3914 3.412 15.7974 3.496 16.1614 3.664C16.5347 3.82267 16.852 4.06533 17.1134 4.392C17.384 4.71867 17.5894 5.12467 17.7294 5.61C17.8787 6.086 17.9534 6.64133 17.9534 7.276C17.9534 8.116 17.8274 8.82533 17.5754 9.404C17.3234 9.97333 16.9687 10.4073 16.5114 10.706C16.0634 10.9953 15.5407 11.14 14.9434 11.14C14.542 11.14 14.178 11.0793 13.8514 10.958C13.5247 10.8273 13.2447 10.65 13.0114 10.426C12.7874 10.1927 12.6147 9.92667 12.4934 9.628H12.3814V13.338H10.6314ZM14.2994 9.712C14.6727 9.712 14.9994 9.62333 15.2794 9.446C15.5594 9.25933 15.774 8.98867 15.9234 8.634C16.082 8.27 16.1614 7.81733 16.1614 7.276C16.1614 6.72533 16.082 6.27267 15.9234 5.918C15.774 5.554 15.5594 5.28333 15.2794 5.106C14.9994 4.92867 14.6727 4.84 14.2994 4.84C13.8794 4.84 13.5294 4.938 13.2494 5.134C12.9694 5.33 12.7594 5.582 12.6194 5.89C12.4794 6.198 12.4094 6.52933 12.4094 6.884V7.668C12.4094 7.92933 12.4467 8.18133 12.5214 8.424C12.6054 8.66667 12.722 8.886 12.8714 9.082C13.03 9.26867 13.226 9.42267 13.4594 9.544C13.702 9.656 13.982 9.712 14.2994 9.712ZM19.354 13.338L19.368 3.552H21.048L21.104 4.924H21.216C21.3933 4.476 21.692 4.112 22.112 3.832C22.5413 3.552 23.0593 3.412 23.666 3.412C24.114 3.412 24.52 3.496 24.884 3.664C25.2573 3.82267 25.5747 4.06533 25.836 4.392C26.1067 4.71867 26.312 5.12467 26.452 5.61C26.6013 6.086 26.676 6.64133 26.676 7.276C26.676 8.116 26.55 8.82533 26.298 9.404C26.046 9.97333 25.6913 10.4073 25.234 10.706C24.786 10.9953 24.2633 11.14 23.666 11.14C23.2647 11.14 22.9007 11.0793 22.574 10.958C22.2473 10.8273 21.9673 10.65 21.734 10.426C21.51 10.1927 21.3373 9.92667 21.216 9.628H21.104V13.338H19.354ZM23.022 9.712C23.3953 9.712 23.722 9.62333 24.002 9.446C24.282 9.25933 24.4967 8.98867 24.646 8.634C24.8047 8.27 24.884 7.81733 24.884 7.276C24.884 6.72533 24.8047 6.27267 24.646 5.918C24.4967 5.554 24.282 5.28333 24.002 5.106C23.722 4.92867 23.3953 4.84 23.022 4.84C22.602 4.84 22.252 4.938 21.972 5.134C21.692 5.33 21.482 5.582 21.342 5.89C21.202 6.198 21.132 6.52933 21.132 6.884V7.668C21.132 7.92933 21.1693 8.18133 21.244 8.424C21.328 8.66667 21.4447 8.886 21.594 9.082C21.7527 9.26867 21.9487 9.42267 22.182 9.544C22.4247 9.656 22.7047 9.712 23.022 9.712ZM28.0767 11V0.794H29.8267V11H28.0767ZM31.7134 11V3.552H33.4634V11H31.7134ZM31.7134 2.502V0.794H33.4634V2.502H31.7134ZM38.5421 11.126C37.7768 11.126 37.1234 10.9673 36.5821 10.65C36.0408 10.3327 35.6208 9.88933 35.3221 9.32C35.0328 8.75067 34.8881 8.08333 34.8881 7.318C34.8881 6.52467 35.0328 5.83867 35.3221 5.26C35.6114 4.672 36.0268 4.21933 36.5681 3.902C37.1094 3.57533 37.7441 3.412 38.4721 3.412C39.3214 3.412 40.0168 3.59867 40.5581 3.972C41.0994 4.34533 41.4868 4.84933 41.7201 5.484C41.9628 6.11867 42.0421 6.842 41.9581 7.654H36.6101C36.6101 8.102 36.6894 8.48467 36.8481 8.802C37.0161 9.11933 37.2448 9.362 37.5341 9.53C37.8234 9.698 38.1594 9.782 38.5421 9.782C38.9901 9.782 39.3681 9.684 39.6761 9.488C39.9841 9.28267 40.1801 9.012 40.2641 8.676H41.9301C41.8648 9.16133 41.6781 9.59067 41.3701 9.964C41.0621 10.328 40.6654 10.6127 40.1801 10.818C39.6948 11.0233 39.1488 11.126 38.5421 11.126ZM36.6101 6.702L36.4561 6.478H40.4181L40.2501 6.702C40.2688 6.254 40.1988 5.89 40.0401 5.61C39.8908 5.32067 39.6761 5.106 39.3961 4.966C39.1254 4.826 38.8174 4.756 38.4721 4.756C38.0988 4.756 37.7721 4.83533 37.4921 4.994C37.2214 5.15267 37.0068 5.37667 36.8481 5.666C36.6988 5.95533 36.6194 6.30067 36.6101 6.702ZM46.0736 11.126C45.6256 11.126 45.2149 11.0467 44.8416 10.888C44.4776 10.72 44.1602 10.4727 43.8896 10.146C43.6282 9.81933 43.4276 9.418 43.2876 8.942C43.1476 8.45667 43.0776 7.90133 43.0776 7.276C43.0776 6.42667 43.1989 5.71733 43.4416 5.148C43.6936 4.56933 44.0436 4.13533 44.4916 3.846C44.9489 3.55667 45.4762 3.412 46.0736 3.412C46.4842 3.412 46.8482 3.47733 47.1656 3.608C47.4922 3.72933 47.7722 3.902 48.0056 4.126C48.2389 4.35 48.4162 4.616 48.5376 4.924H48.6356V0.794H50.3856L50.3716 11H48.6916L48.6356 9.614H48.5376C48.3602 10.0713 48.0569 10.44 47.6276 10.72C47.1982 10.9907 46.6802 11.126 46.0736 11.126ZM46.7316 9.698C47.1516 9.698 47.4969 9.6 47.7676 9.404C48.0476 9.208 48.2576 8.956 48.3976 8.648C48.5376 8.33067 48.6076 7.99933 48.6076 7.654V6.884C48.6076 6.61333 48.5656 6.35667 48.4816 6.114C48.4069 5.87133 48.2902 5.65667 48.1316 5.47C47.9822 5.274 47.7862 5.12 47.5436 5.008C47.3102 4.896 47.0396 4.84 46.7316 4.84C46.3582 4.84 46.0316 4.92867 45.7516 5.106C45.4716 5.28333 45.2522 5.554 45.0936 5.918C44.9349 6.27267 44.8556 6.72533 44.8556 7.276C44.8556 7.808 44.9349 8.256 45.0936 8.62C45.2522 8.984 45.4716 9.25467 45.7516 9.432C46.0316 9.60933 46.3582 9.698 46.7316 9.698Z" fill="#989FB9"/>
</svg>
