<svg width="24" height="24" viewBox="0 0 24 24" fill="none" xmlns="http://www.w3.org/2000/svg">
<path d="M12.3751 20.25H4.47194C4.37679 20.2513 4.28236 20.2334 4.1942 20.1976C4.10605 20.1618 4.02597 20.1087 3.95869 20.0414C3.8914 19.9741 3.83828 19.894 3.80244 19.8059C3.76661 19.7177 3.7488 19.6233 3.75006 19.5281V11.625C3.75006 9.33751 4.65877 7.14371 6.27627 5.5262C7.89377 3.9087 10.0876 3 12.3751 3V3C13.5077 3 14.6293 3.22309 15.6757 3.65654C16.7221 4.08999 17.673 4.7253 18.4739 5.5262C19.2748 6.32711 19.9101 7.27792 20.3435 8.32436C20.777 9.37079 21.0001 10.4923 21.0001 11.625V11.625C21.0001 12.7577 20.777 13.8792 20.3435 14.9256C19.9101 15.9721 19.2748 16.9229 18.4739 17.7238C17.673 18.5247 16.7221 19.16 15.6757 19.5935C14.6293 20.0269 13.5077 20.25 12.3751 20.25V20.25Z" stroke="#1A9669" stroke-width="1.5" stroke-linecap="round" stroke-linejoin="round"/>
<path d="M12.375 13.125C12.9963 13.125 13.5 12.6213 13.5 12C13.5 11.3787 12.9963 10.875 12.375 10.875C11.7537 10.875 11.25 11.3787 11.25 12C11.25 12.6213 11.7537 13.125 12.375 13.125Z" fill="#1A9669"/>
<path d="M7.875 13.125C8.49632 13.125 9 12.6213 9 12C9 11.3787 8.49632 10.875 7.875 10.875C7.25368 10.875 6.75 11.3787 6.75 12C6.75 12.6213 7.25368 13.125 7.875 13.125Z" fill="#1A9669"/>
<path d="M16.875 13.125C17.4963 13.125 18 12.6213 18 12C18 11.3787 17.4963 10.875 16.875 10.875C16.2537 10.875 15.75 11.3787 15.75 12C15.75 12.6213 16.2537 13.125 16.875 13.125Z" fill="#1A9669"/>
</svg>
