<svg width="32" height="32" viewBox="0 0 32 32" fill="none" xmlns="http://www.w3.org/2000/svg">
<path d="M26.675 13.6993L16.675 4.61179C16.4907 4.44314 16.2499 4.34961 16 4.34961C15.7501 4.34961 15.5093 4.44314 15.325 4.61179L5.325 13.6993C5.22437 13.7943 5.14378 13.9085 5.08796 14.0352C5.03215 14.1619 5.00224 14.2984 5 14.4368V25.9993C5 26.2645 5.10536 26.5189 5.29289 26.7064C5.48043 26.8939 5.73478 26.9993 6 26.9993H26C26.2652 26.9993 26.5196 26.8939 26.7071 26.7064C26.8946 26.5189 27 26.2645 27 25.9993V14.4368C26.9978 14.2984 26.9679 14.1619 26.912 14.0352C26.8562 13.9085 26.7756 13.7943 26.675 13.6993V13.6993Z" stroke="#143FCD" stroke-width="1.5" stroke-linecap="round" stroke-linejoin="round"/>
</svg>
