<svg width="33" height="32" viewBox="0 0 33 32" fill="none" xmlns="http://www.w3.org/2000/svg">
<path d="M29.9609 16.258C29.9609 15.1281 29.8692 14.3035 29.6707 13.4485H16.7684V18.5483H24.3418C24.1892 19.8156 23.3646 21.7243 21.5323 23.0068L21.5066 23.1775L25.5861 26.3379L25.8687 26.3661C28.4644 23.9688 29.9609 20.4416 29.9609 16.258Z" fill="#4285F4"/>
<path d="M16.7684 29.6947C20.4787 29.6947 23.5935 28.4732 25.8687 26.3661L21.5323 23.0068C20.3719 23.8161 18.8144 24.3811 16.7684 24.3811C13.1344 24.3811 10.0501 21.9839 8.95059 18.6705L8.78943 18.6842L4.54754 21.9671L4.49207 22.1213C6.75185 26.6103 11.3936 29.6947 16.7684 29.6947Z" fill="#34A853"/>
<path d="M8.95068 18.6705C8.66058 17.8154 8.49268 16.8992 8.49268 15.9526C8.49268 15.0059 8.66058 14.0897 8.93542 13.2347L8.92774 13.0526L4.63268 9.71701L4.49216 9.78385C3.56079 11.6467 3.02637 13.7386 3.02637 15.9526C3.02637 18.1666 3.56079 20.2584 4.49216 22.1212L8.95068 18.6705Z" fill="#FBBC05"/>
<path d="M16.7684 7.52412C19.3488 7.52412 21.0894 8.63875 22.082 9.57023L25.9603 5.78349C23.5784 3.56949 20.4787 2.21054 16.7684 2.21054C11.3936 2.21054 6.75185 5.29486 4.49207 9.78391L8.93533 13.2348C10.0501 9.92138 13.1344 7.52412 16.7684 7.52412Z" fill="#F42929"/>
</svg>
