<svg width="20" height="20" viewBox="0 0 20 20" fill="none" xmlns="http://www.w3.org/2000/svg">
<path d="M10.4123 15.8781L15.1373 18.8781C15.7466 19.2625 16.4966 18.6906 16.3185 17.9875L14.9498 12.6063C14.9127 12.4571 14.9186 12.3005 14.9667 12.1546C15.0148 12.0086 15.1032 11.8792 15.2216 11.7813L19.4591 8.2469C20.0123 7.78752 19.731 6.8594 19.0091 6.81252L13.4779 6.45627C13.327 6.44749 13.1819 6.39494 13.0603 6.30503C12.9388 6.21513 12.8461 6.09177 12.7935 5.95002L10.731 0.756273C10.6764 0.606182 10.5769 0.476526 10.4461 0.384906C10.3153 0.293286 10.1595 0.244141 9.99975 0.244141C9.84004 0.244141 9.6842 0.293286 9.55338 0.384906C9.42256 0.476526 9.3231 0.606182 9.2685 0.756273L7.206 5.95002C7.15344 6.09177 7.06072 6.21513 6.93918 6.30503C6.81764 6.39494 6.67255 6.44749 6.52163 6.45627L0.990377 6.81252C0.268502 6.8594 -0.0127482 7.78752 0.540377 8.2469L4.77788 11.7813C4.89632 11.8792 4.98468 12.0086 5.03278 12.1546C5.08088 12.3005 5.08676 12.4571 5.04975 12.6063L3.78413 17.5938C3.5685 18.4375 4.4685 19.1219 5.19038 18.6625L9.58725 15.8781C9.71055 15.7997 9.85364 15.7581 9.99975 15.7581C10.1459 15.7581 10.289 15.7997 10.4123 15.8781Z" fill="#E77D30"/>
</svg>
