<svg width="32" height="32" viewBox="0 0 32 32" fill="none" xmlns="http://www.w3.org/2000/svg">
<path d="M16 28C22.6274 28 28 22.6274 28 16C28 9.37258 22.6274 4 16 4C9.37258 4 4 9.37258 4 16C4 22.6274 9.37258 28 16 28Z" stroke="#989FB9" stroke-width="1.5" stroke-linecap="round" stroke-linejoin="round"/>
<path d="M16 20C18.7614 20 21 17.7614 21 15C21 12.2386 18.7614 10 16 10C13.2386 10 11 12.2386 11 15C11 17.7614 13.2386 20 16 20Z" stroke="#989FB9" stroke-width="1.5" stroke-linecap="round" stroke-linejoin="round"/>
<path d="M7.9751 24.9258C8.72749 23.4438 9.87555 22.1991 11.292 21.3297C12.7085 20.4602 14.3381 20 16.0001 20C17.6621 20 19.2917 20.4602 20.7082 21.3297C22.1246 22.1991 23.2727 23.4438 24.0251 24.9258" stroke="#989FB9" stroke-width="1.5" stroke-linecap="round" stroke-linejoin="round"/>
</svg>
